PathFileType	4	(X/Y/Z)	./resultDataOpenSim/trcMotMarkerGrf/sub09/qtm-02-03.trc
DataRate	CameraRate	NumFrames	NumMarkers	Units	OrigDataRate	OrigDataStartFrame	OrigNumFrames
250.000000	250.000000	9	24	m	250.000000	237	472
Frame#	Time	L.Toe.Tip			R.Toe.Tip			L.Ankle.Lat			R.Ankle.Lat			L.Ankle.Med			R.Ankle.Med			L.Heel			R.Heel			L.Knee.Lat			R.Knee.Lat			L.Knee.Med			R.Knee.Med			L.Thigh.Upper			R.Thigh.Upper			L.ASIS			R.ASIS			V.Sacral			L.Acromium			R.Acromium			C7			L.Elbow			R.Elbow			L.Wrist.Lat			R.Wrist.Lat
		X1	Y1	Z1	X2	Y2	Z2	X3	Y3	Z3	X4	Y4	Z4	X5	Y5	Z5	X6	Y6	Z6	X7	Y7	Z7	X8	Y8	Z8	X9	Y9	Z9	X10	Y10	Z10	X11	Y11	Z11	X12	Y12	Z12	X13	Y13	Z13	X14	Y14	Z14	X15	Y15	Z15	X16	Y16	Z16	X17	Y17	Z17	X18	Y18	Z18	X19	Y19	Z19	X20	Y20	Z20	X21	Y21	Z21	X22	Y22	Z22	X23	Y23	Z23	X24	Y24	Z24

237	0.944	0.16835948	0.014687896	0.0031525501	0.40723827	0.1000965	0.12079938	0.022131251	0.052818269	-0.042757877	0.26199945	0.12362918	0.1346092	0.041747307	0.073029896	0.053371814	0.28696104	0.15531784	0.04270773	-0.052457737	0.023826061	0.00041850953	0.1985434	0.10151209	0.077848557	0.12784581	0.4552634	-0.097553011	0.39077831	0.55845693	0.17675004	0.12379609	0.4580201	0.028412623	0.38792974	0.54187142	0.048277693	0.14890679	0.8792341	-0.15436668	0.15871575	0.89093108	0.21688567	0.23845458	0.96290105	-0.094036484	0.23371911	0.97408183	0.14421113	0.074990653	1.0266149	0.026326827	0.25789296	1.4204198	-0.13108192	0.21330264	1.4285776	0.19470875	0.17281813	1.4760551	0.025665017	0.11740109	1.076118	-0.21363886	0.051647	1.1017344	0.27310431	0.32308008	0.89776791	-0.20717381	0.17772257	0.86037864	0.30275138
238	0.948	0.16835394	0.014659094	0.003171549	0.42701492	0.10023199	0.12046983	0.022137094	0.053108699	-0.042436254	0.28097995	0.12033113	0.13450305	0.042093325	0.073322565	0.053730482	0.305259	0.15277375	0.042699607	-0.052430862	0.02432045	0.0011684235	0.21855656	0.096764847	0.077496183	0.12870259	0.45534247	-0.097543047	0.3990121	0.55841894	0.1748813	0.12491318	0.45821057	0.028330867	0.39535515	0.54221163	0.048637519	0.15382024	0.87891627	-0.15445011	0.16489106	0.89048415	0.21711054	0.24417819	0.96242159	-0.094113287	0.23982152	0.97363638	0.14423355	0.080757636	1.0261549	0.026408374	0.2639861	1.4199632	-0.13107806	0.21932539	1.4280556	0.19476031	0.17886993	1.4755959	0.025525309	0.12417688	1.0751422	-0.21363219	0.057299252	1.1013347	0.27297203	0.33155401	0.89863469	-0.20625429	0.18303439	0.85981434	0.30300889
239	0.952	0.1683131	0.014647855	0.0031986198	0.44673125	0.1004456	0.12015652	0.022090016	0.053425471	-0.041998742	0.29975922	0.11724836	0.13448069	0.042462934	0.073605754	0.054086105	0.32358984	0.15035282	0.042700608	-0.052397344	0.024842018	0.001957224	0.23848436	0.092258198	0.077280936	0.12958112	0.45542163	-0.09753538	0.40648576	0.55860213	0.17387679	0.12631207	0.45834841	0.028151247	0.40274618	0.54239314	0.04899138	0.15902767	0.87867662	-0.15428883	0.17106545	0.88994921	0.21733648	0.24989587	0.96190277	-0.094200879	0.24594847	0.97310901	0.14425928	0.086274527	1.0256669	0.025904098	0.2700677	1.4194512	-0.1310673	0.22534519	1.4274811	0.1948222	0.1848833	1.4751089	0.025413553	0.13102048	1.0740983	-0.21367614	0.06307194	1.1008553	0.27285192	0.33999662	0.89943607	-0.20535171	0.18836141	0.85917652	0.30327077
240	0.956	0.16827462	0.014663511	0.0031995917	0.46637919	0.10076724	0.11986089	0.022006519	0.053766648	-0.041491079	0.31859793	0.11433438	0.13448756	0.042847554	0.073895474	0.054453815	0.34195833	0.14806584	0.042683383	-0.052360849	0.025381883	0.0027344831	0.25822407	0.088019023	0.077285386	0.1304562	0.45550214	-0.097513832	0.41369876	0.55883816	0.17384993	0.1278181	0.45845722	0.028020837	0.41013423	0.5424234	0.049380225	0.16447205	0.87849422	-0.15391192	0.17723437	0.88932948	0.21756481	0.25562776	0.96134458	-0.094295339	0.25210204	0.97250444	0.14429217	0.091486727	1.025142	0.024712473	0.27614069	1.4188907	-0.13104932	0.2313688	1.426853	0.19489868	0.19091288	1.4745565	0.025308281	0.13794199	1.0729882	-0.21378638	0.068944477	1.1002898	0.27272518	0.34840724	0.90017176	-0.20446394	0.1937297	0.85847095	0.30353196
241	0.96	0.16829432	0.014701969	0.0031475588	0.48595836	0.10121362	0.11958604	0.021903326	0.054124808	-0.040964909	0.33759432	0.11158434	0.13448345	0.043259924	0.074204319	0.054858165	0.36034881	0.14592993	0.042639046	-0.05232617	0.025931798	0.0034967052	0.27785058	0.084024123	0.077421285	0.13133459	0.45558858	-0.097477204	0.42069265	0.55894258	0.17428957	0.12923126	0.45854299	0.028066344	0.41749463	0.54230084	0.049861409	0.16996934	0.87831716	-0.15344354	0.18339918	0.88863157	0.21779655	0.26138743	0.96074533	-0.094388889	0.25827835	0.9718247	0.14433299	0.096572741	1.024558	0.023224808	0.28220826	1.4182846	-0.13102569	0.23740427	1.426171	0.19498654	0.19696838	1.473934	0.02520595	0.14486119	1.07181	-0.21384504	0.074790931	1.0996484	0.27256841	0.35678702	0.90083855	-0.20358173	0.19917303	0.85770735	0.3037881
242	0.964	0.16837413	0.014744353	0.0030744799	0.50547071	0.10179166	0.11934762	0.021774532	0.054498012	-0.040425363	0.35668842	0.10902188	0.13445674	0.043705726	0.074530479	0.055299551	0.37873183	0.14396656	0.042580924	-0.052289257	0.026491045	0.0042594752	0.29748422	0.080234417	0.077531315	0.13225027	0.45568543	-0.097446011	0.42748329	0.55884869	0.17476935	0.13046143	0.45861405	0.02828843	0.42477275	0.54202336	0.05045449	0.17536858	0.8781036	-0.15298667	0.18956124	0.8878601	0.21803198	0.26717231	0.96010358	-0.094477834	0.26446874	0.97107012	0.14437987	0.10182459	1.0239055	0.022031257	0.28827263	1.4176307	-0.13099433	0.24345524	1.4254372	0.19508143	0.20304159	1.4732584	0.025163357	0.15170379	1.0705709	-0.21374788	0.08050712	1.0989495	0.27237605	0.36513803	0.90143306	-0.20269666	0.20470031	0.85689342	0.30404177
243	0.968	0.16845552	0.014767924	0.0030417536	0.52492038	0.1024973	0.11916578	0.021581006	0.054896443	-0.039822741	0.37579039	0.10666891	0.13441597	0.044160172	0.074859972	0.0557457	0.39708297	0.14219246	0.042530205	-0.052240589	0.027062503	0.0050358037	0.31716114	0.076637591	0.077522045	0.13324394	0.4557943	-0.097451905	0.43416688	0.55859001	0.17513652	0.13161943	0.4587041	0.028518975	0.43195176	0.54159831	0.051100883	0.18061491	0.87783042	-0.15257724	0.19571549	0.88701325	0.2182718	0.27297192	0.95941818	-0.094565098	0.27066836	0.97024181	0.1444286	0.10739665	1.0231879	0.021416729	0.29433488	1.4169252	-0.13095187	0.24952265	1.4246546	0.19518184	0.20913839	1.4725288	0.025211643	0.15847816	1.0692854	-0.21350404	0.086143398	1.0982044	0.27217908	0.37346073	0.90195463	-0.20180867	0.2102812	0.85603016	0.30430003
244	0.972	0.16849648	0.014760968	0.0030578636	0.54429721	0.10333041	0.1190549	0.021301862	0.055330142	-0.039127047	0.39485491	0.10451767	0.13436545	0.044589521	0.075184881	0.056161793	0.41539156	0.14061058	0.042497478	-0.052176759	0.027648381	0.0058208401	0.33688246	0.073253354	0.077370344	0.1343351	0.45591731	-0.097509596	0.4407999	0.5582086	0.17541854	0.13290236	0.45884472	0.028573458	0.43913718	0.54104266	0.051649113	0.1857288	0.87748657	-0.15220714	0.20186233	0.88609023	0.21852036	0.2787859	0.95868888	-0.094653256	0.27688181	0.96934314	0.14447426	0.11323932	1.0224107	0.021292887	0.30039573	1.4161688	-0.13089849	0.25560732	1.4238277	0.19528892	0.21525148	1.4717416	0.025322883	0.16525391	1.0679616	-0.21320162	0.091861947	1.097414	0.27202812	0.38175336	0.90240445	-0.20092583	0.21587569	0.85511571	0.30456554
245	0.976	0.16850355	0.014727812	0.0030813962	0.56355444	0.10431464	0.11902298	0.021009901	0.055787443	-0.038418029	0.41388148	0.10252647	0.1342885	0.044981785	0.075512763	0.056532162	0.43365085	0.13921702	0.042478911	-0.052104988	0.028254471	0.0065953618	0.35668396	0.070117764	0.077084348	0.13548264	0.45605831	-0.097589328	0.4473709	0.55772082	0.17572263	0.13438054	0.45902844	0.028443087	0.44658701	0.54038244	0.051899334	0.19077288	0.8770665	-0.15188187	0.20801376	0.88509723	0.21878094	0.28462265	0.95791501	-0.094740041	0.28311948	0.96838125	0.14451561	0.11923517	1.0215785	0.021463534	0.3064575	1.4153668	-0.13083651	0.26170668	1.4229598	0.19540568	0.2213668	1.4709041	0.025459082	0.17209	1.0665989	-0.21291746	0.097768967	1.0965757	0.27195305	0.39001367	0.90278491	-0.20005545	0.22146615	0.85414769	0.30483199
